<svg class="wordmark" xmlns="http://www.w3.org/2000/svg" width="250" height="100" viewBox="5 3 25 10" shape-rendering="crispEdges">
<rect x="5" y="3" width="25" height="10" fill="#3fe08f"/>
<path d="M11,6 12,6 12,7 11,7 M10,6 11,6 11,7 10,7 M9,6 10,6 10,7 9,7 M8,6 9,6 9,7 8,7 M8,7 9,7 9,8 8,8 M8,8 9,8 9,9 8,9 M9,8 10,8 10,9 9,9 M10,8 11,8 11,9 10,9 M11,9 12,9 12,10 11,10 M11,10 12,10 12,11 11,11 M10,10 11,10 11,11 10,11 M9,10 10,10 10,11 9,11 M8,10 9,10 9,11 8,11 M14,10 15,10 15,11 14,11 M14,9 15,9 15,10 14,10 M14,8 15,8 15,9 14,9 M14,7 15,7 15,8 14,8 M14,6 15,6 15,7 14,7 M14,11 15,11 15,12 14,12 M15,6 16,6 16,7 15,7 M16,6 17,6 17,7 16,7 M17,7 18,7 18,8 17,8 M17,8 18,8 18,9 17,9 M16,9 17,9 17,10 16,10 M15,9 16,9 16,10 15,10 M20,9 21,9 21,10 20,10 M20,10 21,10 21,11 20,11 M21,10 22,10 22,11 21,11 M22,10 23,10 23,11 22,11 M23,10 24,10 24,11 23,11 M21,8 22,8 22,9 21,9 M22,8 23,8 23,9 22,9 M23,8 24,8 24,9 23,9 M23,9 24,9 24,10 23,10 M20,8 21,8 21,9 20,9 M23,7 24,7 24,8 23,8 M22,6 23,6 23,7 22,7 M21,6 22,6 22,7 21,7 M20,6 21,6 21,7 20,7 M26,9 27,9 27,10 26,10 M26,8 27,8 27,9 26,9 M26,7 27,7 27,8 26,8 M26,6 27,6 27,7 26,7 M26,5 27,5 27,6 26,6 M26,4 27,4 27,5 26,5 M26,10 27,10 27,11 26,11 " fill="#000000"/>
</svg>
